<?xml version="1.0" encoding="UTF-8" standalone="no"?>
<!DOCTYPE svg PUBLIC "-//W3C//DTD SVG 1.1//EN" "http://www.w3.org/Graphics/SVG/1.1/DTD/svg11.dtd">
<svg width="100%" height="100%" viewBox="0 0 2390 368" version="1.1" xmlns="http://www.w3.org/2000/svg" xmlns:xlink="http://www.w3.org/1999/xlink" xml:space="preserve" xmlns:serif="http://www.serif.com/" style="fill-rule:evenodd;clip-rule:evenodd;stroke-linejoin:round;stroke-miterlimit:2;">
    <g transform="matrix(1,0,0,1,-21.7392,-567.851)">
        <g transform="matrix(1.58861,0,0,1.58861,-1882.43,-259.796)">
            <g transform="matrix(312,0,0,312,1203.36,747.826)">
                <path d="M0.247,-0.395L0.258,-0.395C0.288,-0.395 0.311,-0.405 0.328,-0.424C0.344,-0.443 0.352,-0.47 0.352,-0.506C0.352,-0.526 0.347,-0.542 0.336,-0.551C0.326,-0.561 0.31,-0.566 0.288,-0.566C0.287,-0.566 0.276,-0.565 0.274,-0.565L0.247,-0.395ZM-0.015,-0L0.098,-0.713L0.266,-0.713C0.372,-0.713 0.444,-0.699 0.484,-0.671C0.524,-0.644 0.544,-0.597 0.544,-0.53C0.544,-0.472 0.531,-0.424 0.506,-0.386C0.481,-0.349 0.444,-0.324 0.397,-0.312L0.485,-0L0.274,-0L0.229,-0.288L0.184,-0L-0.015,-0Z" style="fill:rgb(59,0,255);fill-rule:nonzero;"/>
            </g>
            <g transform="matrix(312,0,0,312,1371.55,747.826)">
                <path d="M0.21,-0.238C0.21,-0.211 0.214,-0.192 0.221,-0.179C0.228,-0.167 0.239,-0.161 0.255,-0.161C0.269,-0.161 0.281,-0.167 0.291,-0.178C0.302,-0.189 0.311,-0.207 0.319,-0.231C0.33,-0.263 0.338,-0.301 0.345,-0.345C0.352,-0.39 0.355,-0.433 0.355,-0.473C0.355,-0.5 0.352,-0.519 0.345,-0.532C0.338,-0.545 0.327,-0.551 0.313,-0.551C0.298,-0.551 0.285,-0.545 0.274,-0.534C0.264,-0.524 0.255,-0.506 0.247,-0.482C0.236,-0.449 0.227,-0.41 0.22,-0.365C0.213,-0.319 0.21,-0.277 0.21,-0.238ZM0.234,0.014C0.167,0.014 0.112,-0.01 0.071,-0.059C0.03,-0.108 0.01,-0.173 0.01,-0.254C0.01,-0.32 0.018,-0.384 0.035,-0.447C0.052,-0.509 0.076,-0.562 0.105,-0.604C0.134,-0.645 0.167,-0.676 0.204,-0.696C0.242,-0.716 0.285,-0.726 0.333,-0.726C0.402,-0.726 0.456,-0.702 0.497,-0.654C0.537,-0.606 0.557,-0.541 0.557,-0.458C0.557,-0.392 0.549,-0.327 0.532,-0.266C0.515,-0.204 0.492,-0.151 0.462,-0.108C0.434,-0.067 0.401,-0.037 0.364,-0.016C0.326,0.004 0.282,0.014 0.234,0.014Z" style="fill:rgb(59,0,255);fill-rule:nonzero;"/>
            </g>
            <g transform="matrix(312,0,0,312,1548.42,747.826)">
                <path d="M-0.067,-0L0.24,-0.534L0.054,-0.534L0.083,-0.713L0.544,-0.713L0.24,-0.183L0.43,-0.183L0.401,-0L-0.067,-0Z" style="fill:rgb(59,0,255);fill-rule:nonzero;"/>
            </g>
            <g transform="matrix(312,0,0,312,1697.26,747.826)">
                <path d="M-0.015,-0L0.098,-0.713L0.282,-0.713C0.371,-0.713 0.436,-0.7 0.475,-0.674C0.514,-0.649 0.533,-0.607 0.533,-0.549C0.533,-0.502 0.521,-0.464 0.495,-0.435C0.47,-0.406 0.432,-0.386 0.381,-0.375C0.418,-0.365 0.447,-0.346 0.468,-0.32C0.488,-0.293 0.498,-0.262 0.498,-0.224C0.498,-0.191 0.491,-0.159 0.477,-0.129C0.463,-0.099 0.443,-0.074 0.418,-0.054C0.395,-0.035 0.367,-0.021 0.335,-0.013C0.303,-0.004 0.261,-0 0.208,-0L-0.015,-0ZM0.205,-0.149C0.208,-0.148 0.212,-0.148 0.215,-0.147C0.219,-0.147 0.223,-0.147 0.229,-0.147C0.252,-0.147 0.27,-0.155 0.282,-0.17C0.295,-0.186 0.301,-0.208 0.301,-0.238C0.301,-0.26 0.295,-0.277 0.284,-0.288C0.273,-0.3 0.256,-0.305 0.234,-0.305L0.228,-0.305L0.205,-0.149ZM0.249,-0.438C0.252,-0.438 0.254,-0.437 0.257,-0.437C0.26,-0.437 0.265,-0.437 0.271,-0.437C0.293,-0.437 0.311,-0.443 0.323,-0.456C0.336,-0.468 0.343,-0.485 0.343,-0.507C0.343,-0.525 0.338,-0.539 0.327,-0.548C0.317,-0.557 0.302,-0.562 0.282,-0.562C0.281,-0.562 0.27,-0.561 0.269,-0.561L0.249,-0.438Z" style="fill:rgb(59,0,255);fill-rule:nonzero;"/>
            </g>
            <g transform="matrix(312,0,0,312,1866.97,747.826)">
                <path d="M0.21,-0.238C0.21,-0.211 0.214,-0.192 0.221,-0.179C0.228,-0.167 0.239,-0.161 0.255,-0.161C0.269,-0.161 0.281,-0.167 0.291,-0.178C0.302,-0.189 0.311,-0.207 0.319,-0.231C0.33,-0.263 0.338,-0.301 0.345,-0.345C0.352,-0.39 0.355,-0.433 0.355,-0.473C0.355,-0.5 0.352,-0.519 0.345,-0.532C0.338,-0.545 0.327,-0.551 0.313,-0.551C0.298,-0.551 0.285,-0.545 0.274,-0.534C0.264,-0.524 0.255,-0.506 0.247,-0.482C0.236,-0.449 0.227,-0.41 0.22,-0.365C0.213,-0.319 0.21,-0.277 0.21,-0.238ZM0.234,0.014C0.167,0.014 0.112,-0.01 0.071,-0.059C0.03,-0.108 0.01,-0.173 0.01,-0.254C0.01,-0.32 0.018,-0.384 0.035,-0.447C0.052,-0.509 0.076,-0.562 0.105,-0.604C0.134,-0.645 0.167,-0.676 0.204,-0.696C0.242,-0.716 0.285,-0.726 0.333,-0.726C0.402,-0.726 0.456,-0.702 0.497,-0.654C0.537,-0.606 0.557,-0.541 0.557,-0.458C0.557,-0.392 0.549,-0.327 0.532,-0.266C0.515,-0.204 0.492,-0.151 0.462,-0.108C0.434,-0.067 0.401,-0.037 0.364,-0.016C0.326,0.004 0.282,0.014 0.234,0.014Z" style="fill:rgb(59,0,255);fill-rule:nonzero;"/>
            </g>
            <g transform="matrix(312,0,0,312,2043.84,747.826)">
                <path d="M0.247,-0.395L0.258,-0.395C0.288,-0.395 0.311,-0.405 0.328,-0.424C0.344,-0.443 0.352,-0.47 0.352,-0.506C0.352,-0.526 0.347,-0.542 0.336,-0.551C0.326,-0.561 0.31,-0.566 0.288,-0.566C0.287,-0.566 0.276,-0.565 0.274,-0.565L0.247,-0.395ZM-0.015,-0L0.098,-0.713L0.266,-0.713C0.372,-0.713 0.444,-0.699 0.484,-0.671C0.524,-0.644 0.544,-0.597 0.544,-0.53C0.544,-0.472 0.531,-0.424 0.506,-0.386C0.481,-0.349 0.444,-0.324 0.397,-0.312L0.485,-0L0.274,-0L0.229,-0.288L0.184,-0L-0.015,-0Z" style="fill:rgb(59,0,255);fill-rule:nonzero;"/>
            </g>
            <g transform="matrix(312,0,0,312,2212.03,747.826)">
                <path d="M0.293,-0.412L0.548,-0.412C0.542,-0.268 0.515,-0.16 0.465,-0.091C0.415,-0.021 0.341,0.014 0.244,0.014C0.169,0.014 0.111,-0.009 0.072,-0.055C0.032,-0.102 0.012,-0.169 0.012,-0.257C0.012,-0.326 0.02,-0.391 0.037,-0.453C0.053,-0.515 0.076,-0.568 0.106,-0.612C0.132,-0.65 0.164,-0.679 0.203,-0.698C0.241,-0.717 0.286,-0.727 0.336,-0.727C0.398,-0.727 0.449,-0.712 0.489,-0.683C0.528,-0.654 0.553,-0.612 0.563,-0.558L0.38,-0.49C0.375,-0.513 0.368,-0.528 0.36,-0.537C0.351,-0.546 0.34,-0.551 0.325,-0.551C0.31,-0.551 0.297,-0.545 0.285,-0.535C0.274,-0.524 0.264,-0.507 0.256,-0.485C0.245,-0.453 0.235,-0.413 0.227,-0.363C0.218,-0.313 0.214,-0.271 0.214,-0.235C0.214,-0.208 0.218,-0.188 0.225,-0.177C0.233,-0.166 0.246,-0.16 0.264,-0.16C0.287,-0.16 0.305,-0.17 0.318,-0.189C0.332,-0.208 0.34,-0.236 0.342,-0.271L0.274,-0.271L0.293,-0.412Z" style="fill:rgb(59,0,255);fill-rule:nonzero;"/>
            </g>
            <g transform="matrix(312,0,0,312,2387.37,747.826)">
                <path d="M-0.016,-0L0.097,-0.713L0.45,-0.713L0.423,-0.54L0.269,-0.54L0.254,-0.449L0.393,-0.449L0.367,-0.282L0.228,-0.282L0.212,-0.184L0.366,-0.184L0.337,-0L-0.016,-0Z" style="fill:rgb(59,0,255);fill-rule:nonzero;"/>
            </g>
            <g transform="matrix(312,0,0,312,2519,747.826)">
                <path d="M-0.006,-0L0.108,-0.713L0.292,-0.713L0.356,-0.33L0.423,-0.713L0.59,-0.713L0.478,-0L0.295,-0L0.227,-0.369L0.164,-0L-0.006,-0Z" style="fill:rgb(59,0,255);fill-rule:nonzero;"/>
            </g>
        </g>
    </g>
</svg>
